<?xml version="1.0" encoding="UTF-8"?>
<svg viewBox="0.93 0.07 68.65 95.22" width="68.65" height="95.22" version="1.1" xmlns="http://www.w3.org/2000/svg" xmlns:svg="http://www.w3.org/2000/svg">
   <style>
     path {
       fill: blue;
     }
     @media (prefers-color-scheme: dark) {
       path {
         fill: yellow;
       }
     }
  </style>
  <path d="M 7.48,8.93 C 9.09,8.2 10.21,6.59 10.21,4.71 10.21,2.15 8.13,0.07 5.57,0.07 c -2.56,0 -4.64,2.08 -4.64,4.64 0,1.88 1.12,3.5 2.73,4.22 V 35 c -1.59,0.69 -2.71,2.28 -2.71,4.13 v 0.23 c 0,1.85 1.12,3.43 2.71,4.13 v 25.8 c -1.59,0.69 -2.71,2.28 -2.71,4.13 v 0.23 c 0,2.48 2.01,4.5 4.5,4.5 h 0.23 c 0.97,0 1.87,-0.31 2.61,-0.84 l 22.37,12.91 c -0.01,0.11 -0.02,0.22 -0.02,0.34 v 0.23 c 0,2.48 2.01,4.5 4.5,4.5 h 0.23 c 2.48,0 4.5,-2.01 4.5,-4.5 V 90.56 C 47.907058,85.863269 57.173599,78.047123 64.84,78.14 h 0.23 c 2.48,0 4.5,-2.01 4.5,-4.5 V 73.41 C 61.515359,8.0399256 7.48,65.471196 7.48,8.93 Z M 7.5,69.28 c -4.38,-46.14 -2.19,-23.07 0,0 z" />
</svg>
